<svg xmlns="http://www.w3.org/2000/svg" height="512pt" version="1.1" viewBox="0 0 512.00012 512" width="512pt">
<g id="surface1">
<path d="M 256 209.546875 C 247.714844 209.546875 241 202.828125 241 194.546875 L 241 95.335938 C 241 87.050781 247.714844 80.335938 256 80.335938 C 264.285156 80.335938 271 87.050781 271 95.335938 L 271 194.546875 C 271 202.828125 264.285156 209.546875 256 209.546875 Z M 256 209.546875 " style=" stroke:none;fill-rule:nonzero;fill:rgb(15.294118%,85.098039%,96.862745%);fill-opacity:1;" />
<path d="M 509 488 L 371.660156 304.878906 C 369 301.332031 364.910156 299.144531 360.480469 298.902344 C 356.0625 298.65625 351.75 300.386719 348.714844 303.617188 L 307.59375 347.472656 L 267.121094 302.742188 C 264.277344 299.597656 260.238281 297.804688 256 297.804688 C 251.761719 297.804688 247.71875 299.597656 244.875 302.742188 L 204.402344 347.472656 L 163.28125 303.617188 C 160.25 300.386719 155.941406 298.671875 151.515625 298.902344 C 147.089844 299.144531 143 301.335938 140.339844 304.878906 L 3 488 C -0.410156 492.546875 -0.957031 498.625 1.582031 503.707031 C 4.125 508.789062 9.320312 512 15 512 L 497 512 C 502.683594 512 507.875 508.789062 510.417969 503.707031 C 512.957031 498.625 512.410156 492.546875 509 488 Z M 509 488 " style=" stroke:none;fill-rule:nonzero;fill:rgb(50.196078%,82.745098%,59.607843%);fill-opacity:1;" />
<path d="M 509 488 L 371.660156 304.878906 C 369 301.332031 364.910156 299.144531 360.480469 298.902344 C 356.0625 298.65625 351.75 300.386719 348.714844 303.617188 L 307.59375 347.472656 L 267.121094 302.742188 C 264.277344 299.597656 260.238281 297.804688 256 297.804688 L 256 512 L 497 512 C 502.679688 512 507.875 508.789062 510.414062 503.707031 C 512.957031 498.625 512.410156 492.546875 509 488 Z M 509 488 " style=" stroke:none;fill-rule:nonzero;fill:rgb(0%,70.588235%,29.411765%);fill-opacity:1;" />
<path d="M 371.660156 304.878906 L 292.097656 198.800781 C 282.921875 186.5625 269.761719 179.546875 256 179.546875 C 242.234375 179.546875 229.078125 186.5625 219.898438 198.800781 L 140.339844 304.878906 C 135.972656 310.703125 136.417969 318.828125 141.398438 324.140625 L 193.65625 379.871094 C 196.496094 382.894531 200.457031 384.609375 204.597656 384.609375 C 204.644531 384.609375 204.6875 384.609375 204.730469 384.609375 C 208.925781 384.570312 212.910156 382.78125 215.722656 379.671875 L 256 335.160156 L 296.273438 379.671875 C 299.085938 382.78125 303.070312 384.570312 307.261719 384.609375 C 307.304688 384.609375 307.351562 384.609375 307.398438 384.609375 C 311.539062 384.609375 315.5 382.894531 318.335938 379.871094 L 370.597656 324.140625 C 375.582031 318.828125 376.027344 310.703125 371.660156 304.878906 Z M 371.660156 304.878906 " style=" stroke:none;fill-rule:nonzero;fill:rgb(92.156863%,96.470588%,100%);fill-opacity:1;" />
<path d="M 386.65625 84.277344 L 357.546875 55.167969 L 387.105469 25.605469 C 391.398438 21.316406 392.679688 14.867188 390.359375 9.261719 C 388.035156 3.652344 382.566406 0 376.5 0 L 256 0 C 247.714844 0 241 6.714844 241 15 L 241 95.335938 C 241 103.617188 247.714844 110.335938 256 110.335938 L 376.5 110.335938 C 376.507812 110.332031 376.511719 110.332031 376.519531 110.335938 C 384.804688 110.335938 391.519531 103.617188 391.519531 95.335938 C 391.519531 90.957031 389.644531 87.019531 386.65625 84.277344 Z M 386.65625 84.277344 " style=" stroke:none;fill-rule:nonzero;fill:rgb(100%,38.039216%,58.039216%);fill-opacity:1;" />
<path d="M 371.660156 304.878906 L 292.097656 198.800781 C 282.921875 186.5625 269.761719 179.546875 256 179.546875 L 256 335.160156 L 296.273438 379.675781 C 299.085938 382.78125 303.070312 384.570312 307.261719 384.609375 C 307.308594 384.609375 307.351562 384.609375 307.398438 384.609375 C 311.539062 384.609375 315.5 382.894531 318.339844 379.871094 L 370.597656 324.140625 C 375.582031 318.828125 376.027344 310.703125 371.660156 304.878906 Z M 371.660156 304.878906 " style=" stroke:none;fill-rule:nonzero;fill:rgb(69.803922%,86.27451%,100%);fill-opacity:1;" />
<path d="M 386.65625 84.277344 L 357.546875 55.167969 L 241 55.167969 L 241 95.335938 C 241 103.617188 247.714844 110.335938 256 110.335938 L 376.5 110.335938 C 376.507812 110.335938 376.511719 110.335938 376.519531 110.335938 C 384.804688 110.335938 391.519531 103.617188 391.519531 95.335938 C 391.519531 90.957031 389.644531 87.019531 386.65625 84.277344 Z M 386.65625 84.277344 " style=" stroke:none;fill-rule:nonzero;fill:rgb(100%,22.352941%,69.411765%);fill-opacity:1;" />
</g>
</svg>